<svg width="14" height="18" viewBox="0 0 14 18" fill="none" xmlns="http://www.w3.org/2000/svg">
<g id="apple-seeklogo 1" clip-path="url(#clip0_103_8)">
<g id="Group">
<path id="Vector" d="M11.6924 9.54463C11.7165 12.2634 13.975 13.1682 14 13.1797C13.9809 13.2435 13.6391 14.469 12.8101 15.7349C12.0935 16.8294 11.3497 17.9198 10.1781 17.9424C9.02683 17.9645 8.65663 17.229 7.34041 17.229C6.02459 17.229 5.61328 17.9198 4.52348 17.9645C3.39254 18.0093 2.53134 16.7811 1.80876 15.6906C0.332243 13.4601 -0.79612 9.38779 0.718986 6.63888C1.47166 5.27377 2.81674 4.40932 4.27671 4.38715C5.38726 4.36501 6.43549 5.16784 7.11439 5.16784C7.79286 5.16784 9.06668 4.20237 10.4058 4.34416C10.9664 4.36854 12.54 4.58078 13.5505 6.12625C13.4691 6.17899 11.6728 7.27162 11.6924 9.54463ZM9.5287 2.8685C10.1291 2.10908 10.5332 1.05189 10.423 0C9.55753 0.0363457 8.51099 0.602617 7.89021 1.36162C7.33387 2.03375 6.84664 3.10954 6.97811 4.14062C7.94277 4.2186 8.92825 3.6284 9.5287 2.8685Z" fill="#AFAFAF"/>
</g>
</g>
<defs>
<clipPath id="clip0_103_8">
<rect width="14" height="18" fill="white"/>
</clipPath>
</defs>
</svg>
