<svg width="15" height="9" viewBox="0 0 15 9" fill="none" xmlns="http://www.w3.org/2000/svg">
<g id="equal" clip-path="url(#clip0_349_64)">
<g id="equals">
<path id="Vector" d="M1.70642 2.69919H13.5619C13.7181 2.69919 13.8614 2.6585 13.9916 2.57712C14.1218 2.49574 14.2276 2.38994 14.309 2.25973C14.3904 2.12952 14.4311 1.98304 14.4311 1.82028C14.4311 1.66403 14.3904 1.51918 14.309 1.38571C14.2276 1.25225 14.1218 1.14645 13.9916 1.06833C13.8614 0.990204 13.7181 0.951141 13.5619 0.951141H1.70642C1.55017 0.951141 1.40694 0.990204 1.27673 1.06833C1.14653 1.14645 1.04073 1.25225 0.95935 1.38571C0.87797 1.51918 0.83728 1.66403 0.83728 1.82028C0.83728 1.98304 0.87797 2.12952 0.95935 2.25973C1.04073 2.38994 1.14653 2.49574 1.27673 2.57712C1.40694 2.6585 1.55017 2.69919 1.70642 2.69919ZM1.70642 8.87106H13.5619C13.7181 8.87106 13.8614 8.832 13.9916 8.75388C14.1218 8.67575 14.2276 8.56996 14.309 8.43649C14.3904 8.30303 14.4311 8.15817 14.4311 8.00192C14.4311 7.83916 14.3904 7.69268 14.309 7.56247C14.2276 7.43226 14.1218 7.32647 13.9916 7.24509C13.8614 7.16371 13.7181 7.12302 13.5619 7.12302H1.70642C1.55017 7.12302 1.40694 7.16371 1.27673 7.24509C1.14653 7.32647 1.04073 7.43226 0.95935 7.56247C0.87797 7.69268 0.83728 7.83916 0.83728 8.00192C0.83728 8.15817 0.87797 8.30303 0.95935 8.43649C1.04073 8.56996 1.14653 8.67575 1.27673 8.75388C1.40694 8.832 1.55017 8.87106 1.70642 8.87106Z" fill="#AFAFAF"/>
</g>
</g>
<defs>
<clipPath id="clip0_349_64">
<rect width="13.5938" height="7.93945" fill="white" transform="translate(0.83728 0.93161)"/>
</clipPath>
</defs>
</svg>
